{"title":"Mega.Piranha.2010.480p.BRRip.H264.Feel-Free","uid":5996439,"size":1323573341,"categoryP":"video","categoryS":"movies","magnet":"?xt=urn:btih:3b10a7f2e1aef63bf63d5f121141d058dd2503c7&amp;dn=Mega.Piranha.2010.480p.BRRip.H264.Feel-Free&amp;tr=udp%3A%2F%2Ftracker.openbittorrent.com%3A80&amp;tr=udp%3A%2F%2Fopen.demonii.com%3A1337&amp;tr=udp%3A%2F%2Ftracker.coppersurfer.tk%3A6969&amp;tr=udp%3A%2F%2Fexodus.desync.com%3A6969","seeders":0,"leechers":1,"uploader":"neon","files":10,"time":1291036466,"description":"Genre:Action | Horror | Sci-Fi\nLanguage:English\nIMDb:http://www.imdb.com/title/tt1587807/\nSource:720p.BluRay.x264-SAiMORNY\n\n\nGeneral\nComplete name :Mega.Piranha.2010.480p.BRRip.H264.Feel-Free\nFormat : MPEG-4\nFormat profile : Base Media\nCodec ID : mp42\nFile size : 1.23 GiB\nDuration : 1h 32mn\nOverall bit rate : 1 910 Kbps\nVideo #1\nCodec ID : avc1\nCodec ID/Info : Advanced Video Coding\nDuration : 1h 32mn\nBit rate mode : Variable\nBit rate : 1 429 Kbps\nWidth : 720 pixels\nHeight : 384 pixels\nDisplay aspect ratio : 1.875\nFrame rate mode : Constant\nFrame rate : 23.976 fps\nResolution : 24 bits\nColorimetry : 4:2:0\nScan type : Progressive\nBits/(Pixel*Frame) : 0.216\nStream size : 942 MiB (75%)\nAudio #2\nID : 2\nFormat : AAC\nFormat/Info : Advanced Audio Codec\nFormat version : Version 4\nFormat profile : LC\nFormat settings, SBR : No\nCodec ID : 40\nDuration : 1h 32mn\nBit rate mode : Constant\nBit rate : 477 Kbps\nNominal bit rate : 480 Kbps\nChannel(s) : 6 channels\nChannel positions : Front: L C R, Rear: L R, LFE\nSampling rate : 48.0 KHz\nResolution : 16 bits\nStream size : 314 MiB (25%)\n\nPlot:\nA mutant strain of giant ferocious piranha escape from the Amazon and eat their way toward Florida\n\n","torrent":{"xt":"urn:btih:3b10a7f2e1aef63bf63d5f121141d058dd2503c7","amp;dn":"Mega.Piranha.2010.480p.BRRip.H264.Feel-Free","amp;tr":["udp%3A%2F%2Ftracker.openbittorrent.com%3A80","udp%3A%2F%2Fopen.demonii.com%3A1337","udp%3A%2F%2Ftracker.coppersurfer.tk%3A6969","udp%3A%2F%2Fexodus.desync.com%3A6969"],"infoHash":"3b10a7f2e1aef63bf63d5f121141d058dd2503c7","infoHashBuffer":{"type":"Buffer","data":[59,16,167,242,225,174,246,59,246,61,95,18,17,65,208,88,221,37,3,199]},"announce":[],"urlList":[]}}